<?xml version="1.0" encoding="UTF-8"?>
<!DOCTYPE svg PUBLIC "-//W3C//DTD SVG 1.1//EN" "http://www.w3.org/Graphics/SVG/1.1/DTD/svg11.dtd">
<!-- Creator: CorelDRAW X7 -->
<svg xmlns="http://www.w3.org/2000/svg" xml:space="preserve" width="99.1893in" height="54.1436in" version="1.1" style="shape-rendering:geometricPrecision; text-rendering:geometricPrecision; image-rendering:optimizeQuality; fill-rule:evenodd; clip-rule:evenodd"
viewBox="0 0 203444 111052"
 xmlns:xlink="http://www.w3.org/1999/xlink">
 <defs>
  <style type="text/css">
   <![CDATA[
    .fil0 {fill:#FEFEFE}
    .fil1 {fill:#26C5FF}
    .fil2 {fill:#331204}
    .fil3 {fill:#FEFEFE}
    .fil5 {fill:#FEFEFE;fill-rule:nonzero}
    .fil4 {fill:#331204;fill-rule:nonzero}
   ]]>
  </style>
 </defs>
 <g id="__x0023_Layer_x0020_1">
  <metadata id="CorelCorpID_0Corel-Layer"/>
  <g id="_2673605877280">
   <path class="fil0" d="M59535 11158c14080,0 26620,6586 34712,16843 4527,-2006 9536,-3123 14807,-3123 6589,0 12770,1743 18109,4791 7396,-7541 17700,-12223 29097,-12223 7663,0 14832,2117 20955,5795 621,-2218 1801,-4202 3378,-5792 -4058,-786 -7121,-4357 -7121,-8644 0,-4863 3942,-8805 8805,-8805 4863,0 8806,3942 8806,8805 0,1725 -497,3335 -1355,4693 118,-3 236,-5 354,-5 7380,0 13362,5983 13362,13362 0,6480 -4612,11882 -10734,13103 2752,5488 4303,11682 4303,18239 0,16064 -9296,29954 -22801,36592 1584,4917 472,11080 -3597,14106 -764,615 -1605,1103 -2520,1463 -1172,463 -2391,694 -3658,694 -724,0 -1494,-93 -2311,-279 -540,-123 -1044,-273 -1513,-450 -165,60 -330,113 -496,161 -517,165 -1047,293 -1593,384 -733,123 -1426,184 -2081,184 -1188,0 -2302,-142 -3342,-426 -570,139 -1154,209 -1739,209l0 12 -1531 0c-748,0 -1469,-113 -2148,-320 -428,126 -874,215 -1334,263 -250,25 -498,38 -744,38l0 19 -1075 0c-420,0 -832,-36 -1233,-104 -199,33 -400,58 -605,75 -201,17 -401,25 -600,25l0 4 -1075 0c-332,0 -660,-23 -981,-66 -851,181 -1648,271 -2388,271 -1288,0 -2547,-217 -3777,-650 -550,195 -1130,328 -1736,388 -240,23 -478,35 -715,35l0 22 -1075 0c-913,0 -1787,-168 -2593,-473 -807,305 -1681,473 -2594,473l-1075 0c-1172,0 -2280,-276 -3262,-766 -583,232 -1200,415 -1852,549 -845,173 -1641,260 -2390,260 -1615,0 -3108,-524 -4319,-1411 -1204,871 -2685,1385 -4284,1385l-2163 0c-701,0 -1379,-99 -2021,-283 -657,193 -1351,298 -2070,298l-2156 0c-1297,0 -2515,-339 -3572,-931 -292,152 -594,288 -904,410 -1172,463 -2392,694 -3658,694 -724,0 -1495,-93 -2311,-279 -277,-63 -544,-133 -803,-211 -552,151 -1130,240 -1728,256 -67,2 -134,3 -200,3l0 26 -1075 0c-877,0 -1718,-155 -2497,-438 -779,283 -1620,438 -2498,438l-1107 0c-784,0 -1540,-124 -2249,-353 -506,160 -1027,285 -1561,374 -733,123 -1426,184 -2080,184 -1637,0 -3132,-269 -4486,-807 -92,39 -184,77 -277,113 -1172,463 -2392,694 -3658,694 -725,0 -1495,-93 -2311,-279 -265,-60 -521,-127 -768,-200 -987,319 -2007,479 -3060,479 -724,0 -1494,-93 -2311,-279 -541,-123 -1045,-273 -1513,-450 -165,60 -331,114 -498,162 -516,164 -1046,292 -1591,383 -733,123 -1426,184 -2081,184 -2085,0 -3941,-437 -5569,-1312 -173,76 -347,149 -525,218 -1422,554 -2882,831 -4380,831 -1568,0 -3075,-300 -4522,-901 -1408,-586 -2674,-1440 -3797,-2561l-14 -15 -14 15c-1111,-1111 -1965,-2388 -2563,-3830 -602,-1450 -902,-2959 -902,-4527 0,-158 3,-316 9,-474 -1094,237 -2230,363 -3396,363 -4176,0 -7977,-1605 -10822,-4230 16,196 25,394 25,593 0,3949 -3201,7149 -7149,7149 -3949,0 -7150,-3200 -7150,-7149 0,-3948 3201,-7149 7150,-7149 1112,0 2165,254 3104,707 -723,-1820 -1120,-3805 -1120,-5882 0,-6051 3368,-11315 8330,-14022 -1372,-4265 -2115,-8813 -2115,-13534 0,-24402 19783,-44184 44186,-44184z"/>
   <path class="fil1" d="M59535 11158c14080,0 26620,6586 34712,16843 4527,-2006 9536,-3123 14807,-3123 6589,0 12770,1743 18109,4791 7396,-7541 17700,-12223 29097,-12223 7663,0 14832,2117 20955,5795 621,-2218 1801,-4202 3378,-5792 -4058,-786 -7121,-4357 -7121,-8644 0,-4863 3942,-8805 8805,-8805 4863,0 8806,3942 8806,8805 0,1725 -497,3335 -1355,4693 118,-3 236,-5 354,-5 7380,0 13362,5983 13362,13362 0,6480 -4612,11882 -10734,13103 2752,5488 4303,11682 4303,18239 0,16064 -9296,29954 -22801,36592 1584,4917 472,11080 -3597,14106 -764,615 -1605,1103 -2520,1463 -1172,463 -2391,694 -3658,694 -724,0 -1494,-93 -2311,-279 -540,-123 -1044,-273 -1513,-450 -165,60 -330,113 -496,161 -517,165 -1047,293 -1593,384 -733,123 -1426,184 -2081,184 -1188,0 -2302,-142 -3342,-426 -570,139 -1154,209 -1739,209l0 12 -1531 0c-748,0 -1469,-113 -2148,-320 -428,126 -874,215 -1334,263 -250,25 -498,38 -744,38l0 19 -1075 0c-420,0 -832,-36 -1233,-104 -199,33 -400,58 -605,75 -201,17 -401,25 -600,25l0 4 -1075 0c-332,0 -660,-23 -981,-66 -851,181 -1648,271 -2388,271 -1288,0 -2547,-217 -3777,-650 -550,195 -1130,328 -1736,388 -240,23 -478,35 -715,35l0 22 -1075 0c-913,0 -1787,-168 -2593,-473 -807,305 -1681,473 -2594,473l-1075 0c-1172,0 -2280,-276 -3262,-766 -583,232 -1200,415 -1852,549 -845,173 -1641,260 -2390,260 -1615,0 -3108,-524 -4319,-1411 -1204,871 -2685,1385 -4284,1385l-2163 0c-701,0 -1379,-99 -2021,-283 -657,193 -1351,298 -2070,298l-2156 0c-1297,0 -2515,-339 -3572,-931 -292,152 -594,288 -904,410 -1172,463 -2392,694 -3658,694 -724,0 -1495,-93 -2311,-279 -277,-63 -544,-133 -803,-211 -552,151 -1130,240 -1728,256 -67,2 -134,3 -200,3l0 26 -1075 0c-877,0 -1718,-155 -2497,-438 -779,283 -1620,438 -2498,438l-1107 0c-784,0 -1540,-124 -2249,-353 -506,160 -1027,285 -1561,374 -733,123 -1426,184 -2080,184 -1637,0 -3132,-269 -4486,-807 -92,39 -184,77 -277,113 -1172,463 -2392,694 -3658,694 -725,0 -1495,-93 -2311,-279 -265,-60 -521,-127 -768,-200 -987,319 -2007,479 -3060,479 -724,0 -1494,-93 -2311,-279 -541,-123 -1045,-273 -1513,-450 -165,60 -331,114 -498,162 -516,164 -1046,292 -1591,383 -733,123 -1426,184 -2081,184 -2085,0 -3941,-437 -5569,-1312 -173,76 -347,149 -525,218 -1422,554 -2882,831 -4380,831 -1568,0 -3075,-300 -4522,-901 -1408,-586 -2674,-1440 -3797,-2561l-14 -15 -14 15c-1111,-1111 -1965,-2388 -2563,-3830 -602,-1450 -902,-2959 -902,-4527 0,-158 3,-316 9,-474 -1094,237 -2230,363 -3396,363 -4176,0 -7977,-1605 -10822,-4230 16,196 25,394 25,593 0,3949 -3201,7149 -7149,7149 -3949,0 -7150,-3200 -7150,-7149 0,-3948 3201,-7149 7150,-7149 1112,0 2165,254 3104,707 -723,-1820 -1120,-3805 -1120,-5882 0,-6051 3368,-11315 8330,-14022 -1372,-4265 -2115,-8813 -2115,-13534 0,-24402 19783,-44184 44186,-44184z"/>
   <path class="fil2" d="M189735 21676c3010,0 5449,2432 5449,5433 0,3001 -2439,5433 -5449,5433 -3009,0 -5448,-2432 -5448,-5433 0,-3001 2439,-5433 5448,-5433z"/>
   <path class="fil3" d="M179297 29901c1505,0 2724,1216 2724,2716 0,1501 -1219,2717 -2724,2717 -1505,0 -2724,-1216 -2724,-2717 0,-1500 1219,-2716 2724,-2716z"/>
   <path class="fil4" d="M67124 27101l9740 0 0 36844c0,6099 -2292,11255 -6863,15480 -4583,4214 -9990,6326 -16232,6326 -6171,0 -11458,-2196 -15850,-6588 -4405,-4404 -6601,-9704 -6601,-15898 0,-5658 1755,-10479 5276,-14478 3521,-3998 8104,-6445 13749,-7364 1552,-238 3008,-358 4356,-358 2984,0 6147,800 9489,2399l0 11947c-1110,-1432 -2602,-2542 -4452,-3342 -1850,-799 -3831,-1193 -5932,-1193 -3473,0 -6349,991 -8665,2984 -2625,2268 -3938,5442 -3938,9536 0,3497 1253,6493 3759,8999 2507,2507 5538,3760 9083,3760 3509,0 6564,-1110 9167,-3318 2613,-2208 3914,-4965 3914,-8271l0 -37465zm19679 15548l8918 0c3583,-2584 7707,-3875 12359,-3875 5729,0 10634,2053 14693,6146 4058,4094 6087,9023 6087,14788l0 26473 -10814 0 0 -26807c0,-2709 -1050,-5001 -3139,-6887 -2089,-1886 -4547,-2828 -7364,-2828 -2709,0 -5049,919 -7018,2769 -1811,1701 -2794,3755 -2941,6144l0 27680 -10781 0 0 -43603zm52458 43603l0 -10383c1516,-287 2793,-728 3855,-1349 1051,-609 2089,-1504 3127,-2650 1635,-1754 2507,-3891 2626,-6421 119,-2530 215,-4643 298,-6361 275,-2782 573,-4775 896,-5968 477,-1790 1289,-3557 2446,-5311 1910,-2865 3999,-4977 6266,-6326 2423,-1468 5276,-2208 8534,-2208l0 10622c-2542,561 -4631,1874 -6266,3939 -871,1074 -1432,2172 -1671,3282 -238,1122 -358,2530 -358,4237 0,478 0,919 0,1313 0,406 0,740 0,1027 0,3652 -274,6516 -835,8593 -561,2065 -1755,4237 -3581,6505 -2113,2626 -4356,4523 -6743,5693 -2387,1182 -5252,1766 -8594,1766z"/>
   <path class="fil3" d="M170019 39865c641,0 1160,520 1160,1161 0,640 -519,1160 -1160,1160 -641,0 -1161,-520 -1161,-1160 0,-641 520,-1161 1161,-1161z"/>
   <path class="fil2" d="M176553 41205c-973,0 -1762,-786 -1762,-1757 0,-970 789,-1757 1762,-1757 973,0 1762,787 1762,1757 0,971 -789,1757 -1762,1757z"/>
   <path class="fil5" d="M145186 74366c824,-574 1644,-1323 2463,-2227 1636,-1754 2507,-3890 2626,-6420 120,-2531 215,-4643 299,-6362 274,-2781 572,-4774 895,-5968 366,-1373 929,-2732 1694,-4082 -362,1436 -697,3728 -1007,6865 -99,2041 -212,4549 -354,7552 -142,3005 -1176,5541 -3117,7623 -1162,1283 -2326,2301 -3499,3019z"/>
   <path class="fil0" d="M50028 83519c-2406,-323 -4795,-1086 -7053,-2322 -9737,-5333 -13324,-17453 -8011,-27071 214,-387 441,-764 676,-1131 -5015,10303 -1027,22862 9246,28488 1661,911 3388,1585 5142,2036z"/>
   <path class="fil0" d="M88155 66098c-2118,-17212 8709,-22810 13414,-24978 -6016,4501 -13105,8334 -13414,24978z"/>
   <path class="fil4" d="M116900 105406l0 -2079c304,-58 559,-146 772,-270 210,-122 418,-301 626,-531 327,-351 502,-779 526,-1285 23,-507 42,-930 59,-1274 55,-557 115,-956 179,-1195 96,-358 259,-712 490,-1063 383,-573 801,-996 1255,-1266 485,-294 1056,-442 1708,-442l0 2126c-509,113 -927,375 -1254,789 -175,215 -287,435 -335,657 -47,225 -71,507 -71,848 0,96 0,184 0,263 0,81 0,148 0,205 0,732 -55,1305 -168,1721 -112,413 -351,848 -716,1302 -423,526 -873,906 -1351,1140 -477,237 -1051,354 -1720,354zm-62694 -2826l912 479c-300,583 -645,1055 -1038,1413 -393,356 -833,630 -1323,817 -493,187 -1046,279 -1666,279 -1376,0 -2448,-447 -3223,-1344 -775,-896 -1162,-1908 -1162,-3036 0,-1062 329,-2011 985,-2841 830,-1057 1945,-1587 3340,-1587 1436,0 2585,543 3442,1626 609,765 920,1719 930,2865l-7591 0c22,973 335,1769 939,2388 606,622 1354,933 2243,933 429,0 848,-74 1254,-221 406,-148 751,-343 1036,-588 285,-245 593,-638 922,-1183zm-10916 -9013l1948 0 0 7368c0,1220 -459,2251 -1373,3096 -916,842 -1997,1265 -3246,1265 -1233,0 -2291,-439 -3169,-1318 -881,-880 -1320,-1940 -1320,-3179 0,-1131 351,-2095 1055,-2895 704,-799 1621,-1289 2749,-1472 311,-48 602,-72 872,-72 596,0 1229,160 1897,480l0 2389c-222,-287 -520,-509 -890,-669 -370,-159 -766,-238 -1186,-238 -695,0 -1270,198 -1733,596 -525,454 -788,1089 -788,1908 0,699 251,1298 752,1799 501,501 1108,752 1816,752 702,0 1313,-222 1833,-664 523,-441 783,-992 783,-1654l0 -7492zm58385 3109c717,-517 1542,-775 2472,-775 1146,0 2127,411 2939,1229 811,819 1217,1805 1217,2958l0 5295 -2162 0 0 -5362c0,-542 -211,-1000 -628,-1377 -418,-378 -910,-566 -1473,-566 -542,0 -1010,184 -1404,554 -364,342 -561,755 -588,1236l0 5529 -2156 0 0 -8721 1783 0zm-47458 3642c-145,-577 -356,-1035 -632,-1381 -280,-345 -646,-622 -1102,-832 -456,-211 -936,-317 -1437,-317 -830,0 -1541,264 -2137,794 -438,387 -764,964 -988,1736l6296 0zm7414 -2440l-696 717c-577,-559 -1144,-838 -1694,-838 -351,0 -651,116 -902,348 -250,229 -377,500 -377,809 0,271 103,532 309,777 205,253 640,548 1299,888 801,414 1347,817 1637,1202 282,390 424,830 424,1318 0,690 -243,1273 -728,1753 -485,477 -1091,716 -1818,716 -485,0 -946,-105 -1389,-316 -440,-211 -804,-501 -1094,-872l680 -773c551,623 1139,933 1758,933 432,0 801,-139 1107,-416 303,-277 456,-603 456,-978 0,-308 -100,-582 -300,-825 -203,-237 -657,-535 -1363,-893 -759,-390 -1276,-775 -1547,-1154 -274,-380 -411,-812 -411,-1300 0,-635 219,-1162 653,-1584 438,-419 989,-630 1656,-630 774,0 1555,372 2340,1118zm6138 0l-696 717c-577,-559 -1143,-838 -1694,-838 -351,0 -651,116 -902,348 -250,229 -377,500 -377,809 0,271 103,532 309,777 205,253 640,548 1299,888 801,414 1347,817 1637,1202 282,390 424,830 424,1318 0,690 -242,1273 -727,1753 -485,477 -1091,716 -1819,716 -485,0 -946,-105 -1389,-316 -440,-211 -804,-501 -1093,-872l679 -773c551,623 1139,933 1758,933 433,0 802,-139 1107,-416 304,-277 456,-603 456,-978 0,-308 -100,-582 -300,-825 -203,-237 -656,-535 -1363,-893 -759,-390 -1275,-775 -1547,-1154 -274,-380 -411,-812 -411,-1300 0,-635 219,-1162 654,-1584 437,-419 988,-630 1655,-630 775,0 1555,372 2340,1118zm8990 4702l912 479c-300,583 -646,1055 -1038,1413 -393,356 -833,630 -1323,817 -493,187 -1047,279 -1666,279 -1376,0 -2448,-447 -3223,-1344 -775,-896 -1163,-1908 -1163,-3036 0,-1062 330,-2011 986,-2841 830,-1057 1945,-1587 3339,-1587 1437,0 2586,543 3442,1626 609,765 920,1719 931,2865l-7591 0c21,973 335,1769 939,2388 606,622 1354,933 2242,933 430,0 849,-74 1255,-221 406,-148 751,-343 1036,-588 284,-245 593,-638 922,-1183zm11 -2262c-145,-577 -356,-1035 -633,-1381 -279,-345 -646,-622 -1101,-832 -456,-211 -936,-317 -1437,-317 -830,0 -1542,264 -2137,794 -438,387 -765,964 -989,1736l6297 0zm2765 -3352l1106 0 0 1228c330,-485 678,-843 1044,-1080 367,-235 749,-354 1144,-354 300,0 619,95 959,285l-564 907c-226,-98 -416,-148 -572,-148 -361,0 -709,148 -1043,443 -335,295 -591,756 -767,1378 -135,477 -201,1445 -201,2899l0 2839 -1106 0 0 -8397zm6101 -3131l1075 0 0 3131 1708 0 0 933 -1708 0 0 7464 -1075 0 0 -7464 -1471 0 0 -933 1471 0 0 -3131zm8663 4043l-696 717c-577,-559 -1144,-838 -1694,-838 -351,0 -651,116 -902,348 -250,229 -377,500 -377,809 0,271 103,532 309,777 205,253 640,548 1299,888 801,414 1347,817 1637,1202 282,390 424,830 424,1318 0,690 -242,1273 -727,1753 -485,477 -1091,716 -1819,716 -485,0 -946,-105 -1389,-316 -440,-211 -804,-501 -1094,-872l680 -773c551,623 1139,933 1758,933 433,0 801,-139 1107,-416 303,-277 456,-603 456,-978 0,-308 -100,-582 -300,-825 -203,-237 -656,-535 -1363,-893 -759,-390 -1275,-775 -1547,-1154 -274,-380 -411,-812 -411,-1300 0,-635 219,-1162 653,-1584 438,-419 989,-630 1656,-630 774,0 1555,372 2340,1118zm17297 84l-590 -340c192,-393 324,-698 390,-920 69,-221 116,-508 148,-859l-678 0 0 -2119 1392 0 0 1328c0,665 -45,1184 -135,1563 -89,377 -266,828 -527,1347zm12807 -4238l1075 0 0 4757c438,-574 923,-1006 1447,-1291 527,-287 1097,-430 1711,-430 630,0 1188,158 1676,477 488,319 849,749 1081,1284 232,537 348,1378 348,2525l0 4317 -1076 0 0 -4001c0,-965 -39,-1610 -116,-1934 -134,-554 -379,-970 -733,-1252 -353,-280 -816,-419 -1391,-419 -656,0 -1244,216 -1763,648 -520,429 -862,965 -1028,1602 -103,411 -156,1171 -156,2280l0 3076 -1075 0 0 -11639zm18009 3242l0 8397 -1075 0 0 -1444c-454,550 -960,964 -1524,1238 -561,274 -1178,411 -1845,411 -1186,0 -2200,-429 -3041,-1288 -841,-862 -1260,-1906 -1260,-3139 0,-1205 424,-2238 1273,-3094 846,-857 1866,-1287 3060,-1287 688,0 1310,145 1869,435 556,290 1046,728 1468,1315l0 -1544 1075 0zm-4328 838c-601,0 -1157,148 -1663,443 -508,292 -912,706 -1212,1238 -301,533 -451,1097 -451,1693 0,587 150,1151 454,1689 303,538 709,957 1220,1255 511,300 1059,450 1645,450 587,0 1149,-147 1676,-445 529,-298 935,-699 1220,-1207 285,-506 427,-1078 427,-1713 0,-968 -319,-1777 -959,-2428 -638,-651 -1424,-975 -2357,-975zm6766 -4080l1075 0 0 6637 3922 -3395 1566 0 -4623 4001 4891 4396 -1531 0 -4225 -3798 0 3798 -1075 0 0 -11639zm15028 8856l912 479c-300,583 -646,1055 -1039,1413 -392,356 -832,630 -1323,817 -492,187 -1046,279 -1665,279 -1376,0 -2449,-447 -3223,-1344 -775,-896 -1163,-1908 -1163,-3036 0,-1062 330,-2011 986,-2841 830,-1057 1945,-1587 3339,-1587 1437,0 2586,543 3442,1626 609,765 920,1719 931,2865l-7591 0c21,973 335,1769 938,2388 607,622 1355,933 2243,933 430,0 849,-74 1255,-221 406,-148 751,-343 1036,-588 284,-245 593,-638 922,-1183zm11 -2262c-145,-577 -356,-1035 -633,-1381 -279,-345 -646,-622 -1102,-832 -455,-211 -935,-317 -1436,-317 -830,0 -1542,264 -2137,794 -438,387 -765,964 -989,1736l6297 0zm7414 -2440l-696 717c-577,-559 -1144,-838 -1695,-838 -350,0 -651,116 -901,348 -251,229 -377,500 -377,809 0,271 103,532 308,777 206,253 641,548 1299,888 802,414 1347,817 1637,1202 282,390 425,830 425,1318 0,690 -243,1273 -728,1753 -485,477 -1091,716 -1818,716 -485,0 -947,-105 -1389,-316 -441,-211 -804,-501 -1094,-872l680 -773c551,623 1138,933 1758,933 432,0 801,-139 1107,-416 303,-277 456,-603 456,-978 0,-308 -101,-582 -301,-825 -203,-237 -656,-535 -1362,-893 -759,-390 -1276,-775 -1547,-1154 -275,-380 -412,-812 -412,-1300 0,-635 219,-1162 654,-1584 437,-419 988,-630 1655,-630 775,0 1555,372 2341,1118z"/>
  </g>
 </g>
</svg>
