<?xml version="1.0" encoding="UTF-8"?>
<!DOCTYPE svg PUBLIC "-//W3C//DTD SVG 1.1//EN" "http://www.w3.org/Graphics/SVG/1.1/DTD/svg11.dtd">
<!-- Creator: CorelDRAW X7 -->
<svg xmlns="http://www.w3.org/2000/svg" xml:space="preserve" width="149.227in" height="79.2544in" version="1.1" style="shape-rendering:geometricPrecision; text-rendering:geometricPrecision; image-rendering:optimizeQuality; fill-rule:evenodd; clip-rule:evenodd"
viewBox="0 0 83739 44474"
 xmlns:xlink="http://www.w3.org/1999/xlink">
 <defs>
  <style type="text/css">
   <![CDATA[
    .fil6 {fill:#FEFEFE}
    .fil3 {fill:#26C5FF}
    .fil2 {fill:#3B1703}
    .fil1 {fill:white}
    .fil5 {fill:#FEFEFE;fill-rule:nonzero}
    .fil4 {fill:#58332B;fill-rule:nonzero}
    .fil0 {fill:#3B1703;fill-rule:nonzero}
   ]]>
  </style>
 </defs>
 <g id="__x0023_Layer_x0020_1">
  <metadata id="CorelCorpID_0Corel-Layer"/>
  <g id="_2673567733728">
   <path class="fil0" d="M4526 41102c56,0 103,20 142,60 39,39 59,87 59,143 0,54 -20,102 -59,141 -39,40 -86,60 -142,60 -55,0 -101,-20 -140,-60 -40,-39 -60,-87 -60,-141 0,-56 20,-104 60,-143 39,-40 85,-60 140,-60zm-121 779l243 0 0 1899 -243 0 0 -1899zm2597 395l-194 120c-168,-221 -397,-332 -688,-332 -233,0 -426,74 -580,223 -153,148 -230,328 -230,540 0,138 36,268 107,390 70,121 167,216 290,284 123,67 261,100 414,100 281,0 509,-111 687,-332l194 127c-92,137 -214,242 -367,318 -154,75 -328,112 -524,112 -302,0 -551,-95 -750,-285 -198,-191 -297,-422 -297,-695 0,-183 46,-353 139,-510 93,-158 220,-281 382,-369 163,-88 344,-132 545,-132 126,0 248,19 365,57 117,38 216,88 298,150 82,61 151,139 209,234zm2071 875l206 108c-68,132 -146,239 -234,320 -89,80 -189,142 -300,184 -111,43 -236,63 -376,63 -311,0 -554,-101 -729,-303 -175,-203 -263,-432 -263,-687 0,-240 75,-455 223,-642 188,-239 440,-359 755,-359 325,0 585,123 778,368 138,172 208,388 211,647l-1717 0c5,220 76,400 213,540 137,141 306,211 507,211 97,0 192,-16 283,-50 92,-33 170,-77 235,-133 64,-55 134,-144 208,-267zm3 -512c-33,-130 -81,-234 -143,-312 -64,-78 -146,-141 -250,-188 -103,-48 -211,-72 -324,-72 -188,0 -349,60 -484,180 -99,87 -173,218 -223,392l1424 0zm3553 -363l-194 120c-168,-221 -398,-332 -688,-332 -233,0 -426,74 -580,223 -153,148 -230,328 -230,540 0,138 35,268 106,390 71,121 168,216 291,284 123,67 261,100 414,100 280,0 509,-111 687,-332l194 127c-92,137 -214,242 -367,318 -154,75 -328,112 -524,112 -302,0 -552,-95 -750,-285 -198,-191 -297,-422 -297,-695 0,-183 46,-353 139,-510 92,-158 220,-281 382,-369 163,-88 344,-132 545,-132 126,0 248,19 365,57 117,38 216,88 298,150 82,61 151,139 209,234zm375 -395l250 0 0 278c75,-110 153,-191 236,-244 83,-53 170,-80 259,-80 68,0 140,21 217,64l-128 205c-51,-22 -94,-33 -129,-33 -82,0 -160,33 -236,100 -76,67 -133,171 -173,312 -31,108 -46,326 -46,655l0 642 -250 0 0 -1899zm2772 1270l206 108c-68,132 -146,239 -235,320 -89,80 -188,142 -299,184 -111,43 -237,63 -377,63 -311,0 -553,-101 -729,-303 -175,-203 -262,-432 -262,-687 0,-240 74,-455 223,-642 187,-239 439,-359 755,-359 324,0 584,123 778,368 138,172 208,388 210,647l-1716 0c5,220 76,400 212,540 137,141 306,211 507,211 97,0 192,-16 284,-50 92,-33 170,-77 234,-133 64,-55 134,-144 209,-267zm2 -512c-33,-130 -80,-234 -143,-312 -63,-78 -146,-141 -249,-188 -103,-48 -212,-72 -325,-72 -188,0 -348,60 -483,180 -99,87 -173,218 -224,392l1424 0zm2610 -758l0 1899 -243 0 0 -327c-103,125 -217,219 -345,281 -127,62 -266,92 -417,92 -268,0 -498,-97 -688,-291 -190,-195 -285,-431 -285,-710 0,-272 96,-506 288,-699 192,-194 422,-291 692,-291 156,0 296,33 423,98 125,66 236,165 332,298l0 -350 243 0zm-979 190c-136,0 -261,33 -376,100 -115,66 -206,160 -274,280 -68,121 -102,248 -102,383 0,133 34,260 103,382 68,121 160,216 276,283 115,68 239,102 371,102 133,0 260,-33 379,-100 120,-68 212,-158 276,-273 65,-115 97,-244 97,-388 0,-218 -72,-401 -217,-549 -144,-147 -322,-220 -533,-220zm1530 -190l243 0 0 329c85,-121 172,-210 262,-266 124,-73 254,-109 389,-109 93,0 180,18 263,54 82,36 150,84 202,144 53,60 98,146 137,258 81,-149 183,-262 304,-340 122,-77 253,-116 394,-116 131,0 247,33 348,99 100,67 175,159 224,278 49,118 73,296 73,533l0 1035 -250 0 0 -1036c0,-203 -15,-343 -44,-419 -29,-76 -78,-138 -149,-184 -70,-47 -154,-70 -251,-70 -118,0 -227,35 -324,105 -99,69 -170,162 -216,279 -45,116 -68,310 -68,582l0 743 -243 0 0 -971c0,-229 -14,-385 -43,-467 -28,-82 -78,-148 -149,-197 -71,-50 -155,-74 -253,-74 -113,0 -219,34 -317,102 -98,68 -171,160 -218,275 -47,115 -71,291 -71,528l0 804 -243 0 0 -1899zm3598 1427l235 112 -353 660 -173 -73 291 -699zm3581 -1032l-194 120c-168,-221 -398,-332 -688,-332 -233,0 -426,74 -580,223 -153,148 -230,328 -230,540 0,138 36,268 106,390 71,121 168,216 291,284 123,67 261,100 414,100 281,0 509,-111 687,-332l194 127c-92,137 -214,242 -367,318 -154,75 -328,112 -524,112 -302,0 -552,-95 -750,-285 -198,-191 -297,-422 -297,-695 0,-183 46,-353 139,-510 92,-158 220,-281 382,-369 163,-88 344,-132 545,-132 126,0 248,19 365,57 117,38 216,88 298,150 82,61 151,139 209,234zm2360 -395l0 1899 -244 0 0 -327c-102,125 -217,219 -344,281 -127,62 -266,92 -417,92 -268,0 -498,-97 -688,-291 -190,-195 -285,-431 -285,-710 0,-272 96,-506 288,-699 191,-194 422,-291 692,-291 155,0 296,33 422,98 126,66 237,165 332,298l0 -350 244 0zm-979 190c-136,0 -262,33 -376,100 -115,66 -206,160 -274,280 -68,121 -102,248 -102,383 0,133 34,260 102,382 69,121 161,216 276,283 116,68 240,102 372,102 133,0 260,-33 379,-100 120,-68 212,-158 276,-273 65,-115 97,-244 97,-388 0,-218 -72,-401 -217,-549 -144,-147 -322,-220 -533,-220zm1530 -190l243 0 0 341c98,-130 207,-227 325,-291 119,-64 249,-96 389,-96 142,0 269,36 379,108 110,72 192,169 244,291 53,122 79,312 79,570l0 976 -243 0 0 -905c0,-218 -10,-364 -28,-437 -30,-125 -85,-219 -165,-283 -81,-63 -186,-95 -315,-95 -148,0 -281,49 -398,147 -118,97 -195,218 -232,362 -23,94 -35,266 -35,516l0 695 -243 0 0 -1899zm4075 -733l0 2632 -243 0 0 -327c-102,125 -217,219 -344,281 -127,62 -267,92 -417,92 -268,0 -498,-97 -688,-291 -190,-195 -285,-431 -285,-710 0,-272 96,-506 288,-699 191,-194 422,-291 692,-291 155,0 296,33 422,99 126,67 237,166 332,299l0 -1085 243 0zm-978 923c-136,0 -262,33 -376,100 -115,66 -206,160 -274,280 -68,121 -102,248 -102,383 0,133 34,260 102,382 69,121 161,216 276,283 116,68 240,102 372,102 133,0 260,-33 379,-100 120,-68 212,-158 276,-273 64,-115 97,-244 97,-388 0,-218 -73,-401 -217,-549 -145,-147 -322,-220 -533,-220zm1329 -190l254 0 654 1456 637 -1456 260 0 -1133 2593 -260 0 371 -850 -783 -1743zm1963 826l959 0 0 215 -959 0 0 -215zm1348 -826l243 0 0 350c97,-133 208,-232 334,-298 125,-65 265,-98 420,-98 270,0 501,97 693,291 192,193 288,427 288,699 0,279 -96,515 -286,710 -190,194 -419,291 -688,291 -151,0 -290,-31 -417,-94 -127,-63 -241,-156 -344,-281l0 1023 -243 0 0 -2593zm979 190c-211,0 -389,73 -533,220 -145,148 -217,331 -217,549 0,144 32,273 97,388 64,115 156,205 276,273 121,67 247,100 380,100 131,0 255,-34 370,-102 116,-67 208,-162 276,-283 69,-122 103,-249 103,-382 0,-135 -34,-262 -102,-383 -68,-120 -159,-214 -274,-280 -115,-67 -240,-100 -376,-100zm2357 -236c293,0 536,105 728,317 176,192 263,421 263,684 0,265 -92,496 -277,694 -185,198 -423,296 -714,296 -292,0 -531,-98 -715,-296 -186,-198 -278,-429 -278,-694 0,-262 87,-490 263,-682 192,-213 436,-319 730,-319zm-1 239c-203,0 -377,75 -523,225 -146,149 -219,330 -219,542 0,137 33,264 100,383 66,118 156,209 270,274 112,64 237,96 372,96 135,0 260,-32 373,-96 113,-65 203,-156 270,-274 66,-119 99,-246 99,-383 0,-212 -73,-393 -220,-542 -146,-150 -320,-225 -522,-225zm1446 -193l243 0 0 350c97,-133 207,-232 333,-298 126,-65 266,-98 421,-98 270,0 500,97 692,291 192,193 288,427 288,699 0,279 -95,515 -285,710 -190,194 -420,291 -689,291 -150,0 -289,-31 -416,-94 -127,-63 -241,-156 -344,-281l0 1023 -243 0 0 -2593zm979 190c-212,0 -389,73 -533,220 -145,148 -217,331 -217,549 0,144 32,273 96,388 65,115 157,205 277,273 120,67 247,100 380,100 131,0 254,-34 370,-102 116,-67 207,-162 276,-283 68,-122 102,-249 102,-382 0,-135 -34,-262 -101,-383 -68,-120 -160,-214 -275,-280 -114,-67 -240,-100 -375,-100zm2415 17l-158 162c-130,-127 -258,-190 -383,-190 -79,0 -147,26 -204,79 -56,52 -85,113 -85,183 0,61 23,120 70,176 46,57 145,124 294,200 181,94 304,185 370,272 64,88 96,188 96,298 0,156 -55,288 -165,396 -109,108 -246,162 -411,162 -110,0 -214,-23 -314,-71 -100,-48 -182,-113 -247,-197l153 -175c125,141 258,211 398,211 98,0 181,-31 250,-94 69,-63 103,-136 103,-221 0,-70 -22,-132 -68,-187 -46,-53 -148,-121 -308,-202 -171,-88 -288,-175 -350,-261 -62,-86 -93,-183 -93,-293 0,-144 50,-263 148,-359 99,-94 224,-142 374,-142 176,0 352,84 530,253zm674 1220l234 112 -353 660 -172 -73 291 -699zm2693 -1220l-157 162c-130,-127 -259,-190 -383,-190 -79,0 -147,26 -204,79 -57,52 -85,113 -85,183 0,61 23,120 70,176 46,57 144,124 293,200 182,94 305,185 370,272 64,88 96,188 96,298 0,156 -54,288 -164,396 -110,108 -247,162 -411,162 -110,0 -214,-23 -314,-71 -100,-48 -182,-113 -248,-197l154 -175c125,141 258,211 398,211 97,0 181,-31 250,-94 68,-63 103,-136 103,-221 0,-70 -23,-132 -68,-187 -46,-53 -148,-121 -308,-202 -172,-88 -288,-175 -350,-261 -62,-86 -93,-183 -93,-293 0,-144 50,-263 148,-359 99,-94 223,-142 374,-142 175,0 352,84 529,253zm430 -940l243 0 0 1076c99,-130 209,-228 327,-292 120,-65 248,-97 387,-97 143,0 269,36 379,108 110,72 192,169 244,290 53,122 79,312 79,571l0 976 -243 0 0 -905c0,-218 -9,-364 -26,-437 -31,-125 -86,-219 -166,-283 -80,-63 -185,-95 -314,-95 -149,0 -282,49 -399,147 -118,97 -195,218 -233,362 -23,93 -35,265 -35,516l0 695 -243 0 0 -2632zm4072 733l0 1899 -243 0 0 -327c-103,125 -217,219 -344,281 -127,62 -267,92 -418,92 -268,0 -497,-97 -687,-291 -190,-195 -285,-431 -285,-710 0,-272 96,-506 288,-699 191,-194 422,-291 692,-291 155,0 296,33 422,98 126,66 237,165 332,298l0 -350 243 0zm-978 190c-136,0 -262,33 -376,100 -115,66 -207,160 -275,280 -67,121 -101,248 -101,383 0,133 34,260 102,382 69,121 160,216 276,283 116,68 240,102 372,102 133,0 260,-33 379,-100 120,-68 211,-158 276,-273 64,-115 96,-244 96,-388 0,-218 -72,-401 -217,-549 -144,-147 -321,-220 -532,-220zm1529 -923l243 0 0 1501 887 -768 354 0 -1045 905 1106 994 -346 0 -956 -859 0 859 -243 0 0 -2632zm3398 2003l207 108c-68,132 -146,239 -235,320 -89,80 -188,142 -299,184 -112,43 -237,63 -377,63 -311,0 -554,-101 -729,-303 -175,-203 -263,-432 -263,-687 0,-240 75,-455 223,-642 188,-239 440,-359 755,-359 325,0 585,123 779,368 137,172 208,388 210,647l-1716 0c4,220 75,400 212,540 137,141 306,211 507,211 97,0 192,-16 284,-50 91,-33 169,-77 234,-133 64,-55 134,-144 208,-267zm3 -512c-33,-130 -81,-234 -143,-312 -63,-78 -146,-141 -249,-188 -103,-48 -212,-72 -325,-72 -188,0 -349,60 -483,180 -99,87 -173,218 -224,392l1424 0zm1676 -551l-157 162c-131,-127 -259,-190 -383,-190 -80,0 -147,26 -204,79 -57,52 -85,113 -85,183 0,61 23,120 69,176 47,57 145,124 294,200 181,94 305,185 370,272 64,88 96,188 96,298 0,156 -55,288 -164,396 -110,108 -247,162 -411,162 -110,0 -214,-23 -314,-71 -100,-48 -182,-113 -248,-197l154 -175c124,141 257,211 397,211 98,0 182,-31 251,-94 68,-63 103,-136 103,-221 0,-70 -23,-132 -68,-187 -46,-53 -149,-121 -308,-202 -172,-88 -289,-175 -350,-261 -62,-86 -93,-183 -93,-293 0,-144 49,-263 148,-359 99,-94 223,-142 374,-142 175,0 352,84 529,253zm3311 -207l0 1899 -243 0 0 -327c-102,125 -217,219 -344,281 -127,62 -267,92 -417,92 -269,0 -498,-97 -688,-291 -190,-195 -285,-431 -285,-710 0,-272 96,-506 288,-699 191,-194 422,-291 692,-291 155,0 296,33 422,98 126,66 237,165 332,298l0 -350 243 0zm-978 190c-136,0 -262,33 -376,100 -115,66 -206,160 -274,280 -68,121 -102,248 -102,383 0,133 34,260 102,382 69,121 161,216 276,283 116,68 240,102 372,102 133,0 260,-33 379,-100 120,-68 212,-158 276,-273 64,-115 96,-244 96,-388 0,-218 -72,-401 -216,-549 -145,-147 -322,-220 -533,-220zm1530 -190l243 0 0 341c98,-130 207,-227 325,-291 119,-64 249,-96 389,-96 142,0 268,36 379,108 110,72 191,169 244,291 52,122 79,312 79,570l0 976 -243 0 0 -905c0,-218 -10,-364 -28,-437 -30,-125 -85,-219 -166,-283 -80,-63 -185,-95 -314,-95 -149,0 -282,49 -398,147 -118,97 -195,218 -232,362 -23,94 -35,266 -35,516l0 695 -243 0 0 -1899zm4075 -733l0 2632 -243 0 0 -327c-102,125 -217,219 -344,281 -127,62 -267,92 -418,92 -268,0 -497,-97 -687,-291 -190,-195 -285,-431 -285,-710 0,-272 96,-506 288,-699 191,-194 422,-291 692,-291 155,0 296,33 422,99 126,67 237,166 332,299l0 -1085 243 0zm-978 923c-136,0 -262,33 -376,100 -115,66 -207,160 -274,280 -69,121 -102,248 -102,383 0,133 33,260 102,382 69,121 160,216 276,283 116,68 240,102 372,102 133,0 260,-33 379,-100 120,-68 211,-158 276,-273 64,-115 96,-244 96,-388 0,-218 -72,-401 -217,-549 -144,-147 -321,-220 -532,-220zm2522 -190l243 0 0 329c86,-121 173,-210 263,-266 123,-73 253,-109 389,-109 92,0 179,18 262,54 83,36 150,84 203,144 52,60 97,146 136,258 81,-149 183,-262 305,-340 122,-77 253,-116 393,-116 132,0 248,33 348,99 101,67 175,159 224,278 49,118 73,296 73,533l0 1035 -250 0 0 -1036c0,-203 -14,-343 -43,-419 -30,-76 -79,-138 -149,-184 -71,-47 -154,-70 -252,-70 -118,0 -226,35 -324,105 -98,69 -170,162 -215,279 -46,116 -68,310 -68,582l0 743 -243 0 0 -971c0,-229 -15,-385 -43,-467 -29,-82 -78,-148 -149,-197 -72,-50 -156,-74 -254,-74 -113,0 -218,34 -317,102 -98,68 -171,160 -218,275 -47,115 -71,291 -71,528l0 804 -243 0 0 -1899zm4255 -46c292,0 535,105 728,317 175,192 263,421 263,684 0,265 -93,496 -278,694 -185,198 -423,296 -713,296 -292,0 -531,-98 -716,-296 -186,-198 -278,-429 -278,-694 0,-262 88,-490 263,-682 192,-213 436,-319 731,-319zm-2 239c-203,0 -377,75 -523,225 -146,149 -219,330 -219,542 0,137 34,264 100,383 67,118 157,209 270,274 113,64 237,96 372,96 136,0 260,-32 373,-96 113,-65 203,-156 270,-274 66,-119 99,-246 99,-383 0,-212 -73,-393 -220,-542 -146,-150 -320,-225 -522,-225zm1350 -193l250 0 0 278c74,-110 153,-191 236,-244 83,-53 169,-80 259,-80 67,0 140,21 216,64l-127 205c-51,-22 -94,-33 -129,-33 -82,0 -161,33 -236,100 -76,67 -134,171 -174,312 -30,108 -45,326 -45,655l0 642 -250 0 0 -1899zm2771 1270l207 108c-68,132 -147,239 -235,320 -89,80 -189,142 -299,184 -112,43 -237,63 -377,63 -311,0 -554,-101 -729,-303 -175,-203 -263,-432 -263,-687 0,-240 75,-455 223,-642 188,-239 440,-359 755,-359 325,0 585,123 778,368 138,172 208,388 211,647l-1716 0c4,220 75,400 212,540 137,141 306,211 507,211 97,0 192,-16 284,-50 91,-33 169,-77 234,-133 64,-55 134,-144 208,-267zm3 -512c-33,-130 -81,-234 -143,-312 -64,-78 -146,-141 -249,-188 -104,-48 -212,-72 -325,-72 -188,0 -349,60 -483,180 -99,87 -173,218 -224,392l1424 0zm986 755c60,0 110,21 152,62 42,43 62,93 62,154 0,60 -20,110 -62,153 -42,42 -92,63 -152,63 -59,0 -110,-21 -152,-63 -42,-43 -63,-93 -63,-153 0,-61 21,-111 63,-154 42,-41 93,-62 152,-62zm990 0c59,0 110,21 152,62 42,43 62,93 62,154 0,60 -20,110 -62,153 -42,42 -93,63 -152,63 -59,0 -110,-21 -152,-63 -42,-43 -63,-93 -63,-153 0,-61 21,-111 63,-154 42,-41 93,-62 152,-62z"/>
   <path class="fil0" d="M79263 43394c59,0 109,21 152,62 41,43 62,93 62,154 0,60 -21,110 -62,153 -43,42 -93,63 -152,63 -59,0 -110,-21 -152,-63 -42,-43 -63,-93 -63,-153 0,-61 21,-111 63,-154 42,-41 93,-62 152,-62z"/>
  </g>
  <path class="fil1" d="M30259 3079c3886,0 7346,1818 9579,4648 1250,-553 2632,-861 4087,-861 1818,0 3524,481 4997,1322 2041,-2081 4885,-3373 8030,-3373 2115,0 4093,584 5783,1599 172,-612 497,-1160 932,-1599 -1119,-217 -1965,-1202 -1965,-2385 0,-1342 1088,-2430 2430,-2430 1342,0 2430,1088 2430,2430 0,476 -137,920 -374,1295 33,-1 65,-1 98,-1 2037,0 3688,1651 3688,3687 0,1788 -1273,3279 -2963,3616 760,1515 1188,3224 1188,5034 0,6211 -5035,11246 -11247,11246 -2588,0 -4972,-875 -6873,-2345 -1703,1312 -3837,2093 -6154,2093 -2342,0 -4497,-797 -6209,-2135 -2062,1596 -4648,2546 -7457,2546 -2260,0 -4376,-616 -6190,-1687 -808,921 -1993,1503 -3314,1503 -1152,0 -2201,-443 -2986,-1167 4,54 6,108 6,163 0,1090 -883,1973 -1973,1973 -1089,0 -1973,-883 -1973,-1973 0,-1089 884,-1973 1973,-1973 307,0 598,71 857,196 -199,-503 -309,-1050 -309,-1624 0,-1670 929,-3122 2299,-3869 -379,-1177 -584,-2432 -584,-3735 0,-6735 5460,-12194 12194,-12194z"/>
  <path class="fil2" d="M66190 5407c831,0 1504,671 1504,1499 0,828 -673,1500 -1504,1500 -830,0 -1503,-672 -1503,-1500 0,-828 673,-1499 1503,-1499z"/>
  <path class="fil3" d="M63310 7677c415,0 751,335 751,749 0,414 -336,750 -751,750 -416,0 -752,-336 -752,-750 0,-414 336,-749 752,-749z"/>
  <path class="fil0" d="M32354 6904l2687 0 0 10168c0,1683 -632,3106 -1894,4272 -1265,1163 -2757,1746 -4479,1746 -1703,0 -3162,-607 -4374,-1819 -1216,-1215 -1822,-2677 -1822,-4387 0,-1561 484,-2892 1456,-3995 972,-1104 2237,-1779 3794,-2033 429,-65 830,-98 1203,-98 823,0 1696,220 2618,662l0 3297c-306,-396 -718,-702 -1228,-923 -511,-220 -1058,-329 -1637,-329 -959,0 -1753,274 -2392,824 -724,625 -1087,1502 -1087,2631 0,965 346,1792 1038,2484 692,692 1528,1037 2507,1037 968,0 1811,-306 2529,-915 722,-610 1081,-1371 1081,-2283l0 -10339zm5430 4291l2461 0c989,-713 2127,-1070 3411,-1070 1581,0 2935,567 4055,1696 1120,1130 1680,2491 1680,4082l0 7305 -2985 0 0 -7398c0,-747 -289,-1380 -866,-1900 -576,-521 -1255,-781 -2032,-781 -748,0 -1393,254 -1937,764 -500,470 -771,1037 -812,1697l0 7638 -2975 0 0 -12033zm14477 12033l0 -2866c418,-79 771,-201 1064,-372 290,-168 576,-415 863,-731 451,-484 692,-1074 725,-1772 32,-698 59,-1281 82,-1756 76,-767 158,-1317 247,-1647 132,-494 356,-981 675,-1465 527,-791 1104,-1374 1729,-1746 669,-405 1456,-609 2356,-609l0 2931c-702,155 -1279,517 -1730,1087 -240,296 -395,599 -461,906 -66,309 -99,698 -99,1169 0,132 0,254 0,362 0,112 0,205 0,284 0,1008 -75,1798 -230,2371 -155,570 -485,1169 -988,1795 -583,725 -1203,1249 -1861,1571 -659,326 -1450,488 -2372,488z"/>
  <path class="fil4" d="M32354 6766l2687 0 139 0 0 138 0 10168c0,861 -163,1656 -486,2385 -323,729 -808,1392 -1453,1988l0 1c-645,592 -1349,1038 -2112,1335l0 0c-762,298 -1583,447 -2461,447 -870,0 -1678,-155 -2425,-466 -746,-310 -1429,-774 -2047,-1393 -620,-620 -1086,-1305 -1396,-2053 -311,-749 -466,-1559 -466,-2432 0,-796 124,-1535 372,-2216 249,-683 621,-1306 1118,-1871 496,-563 1069,-1018 1716,-1365 646,-345 1366,-583 2160,-712l2 0c216,-34 427,-59 632,-76 204,-16 402,-25 591,-25 843,0 1736,226 2678,676l79 38 0 87 0 3297 -248 84c-145,-187 -315,-353 -508,-499 -198,-148 -420,-275 -666,-381 -245,-106 -500,-186 -763,-238 -262,-53 -536,-79 -819,-79 -464,0 -888,65 -1271,197 -381,132 -725,329 -1031,592 -345,299 -605,657 -777,1075 -174,421 -261,905 -261,1452 0,927 332,1721 997,2386 333,333 700,583 1100,748 400,166 837,249 1309,249 468,0 905,-74 1310,-220 406,-147 783,-369 1130,-663 345,-291 604,-619 775,-981 171,-361 256,-760 256,-1196l0 -10339 0 -138 139 0zm2549 276l-2411 0 0 10201c0,476 -94,915 -283,1314 -189,398 -471,757 -847,1074 -371,315 -776,553 -1214,711 -437,158 -905,238 -1404,238 -507,0 -979,-90 -1414,-271 -436,-180 -833,-449 -1191,-807 -718,-719 -1078,-1578 -1078,-2582 0,-582 94,-1101 283,-1557 189,-459 473,-852 852,-1179l1 0c332,-287 706,-501 1120,-644 413,-142 866,-213 1361,-213 298,0 589,28 873,85 282,57 555,142 818,256 267,115 508,253 722,414 112,84 217,174 314,271l0 -2846c-874,-407 -1700,-611 -2480,-611 -183,0 -374,8 -570,24 -196,16 -401,41 -612,73l0 0c-764,124 -1454,352 -2073,682 -616,331 -1163,765 -1638,1305 -475,539 -830,1133 -1066,1782 -237,650 -355,1357 -355,2122 0,837 147,1612 444,2326 296,714 742,1369 1337,1964 593,593 1246,1038 1957,1333 712,296 1485,444 2319,444 844,0 1631,-142 2361,-427l1 0c729,-284 1404,-712 2024,-1282l0 1c616,-570 1079,-1202 1387,-1897 308,-694 462,-1452 462,-2274l0 -10030z"/>
  <path class="fil3" d="M60749 10427c177,0 320,143 320,320 0,177 -143,320 -320,320 -177,0 -320,-143 -320,-320 0,-177 143,-320 320,-320z"/>
  <path class="fil2" d="M62552 10796c-268,0 -486,-217 -486,-485 0,-267 218,-484 486,-484 269,0 487,217 487,484 0,268 -218,485 -487,485z"/>
  <path class="fil5" d="M53896 19948c228,-159 454,-365 680,-615 451,-484 692,-1073 725,-1772 32,-698 59,-1281 82,-1755 76,-768 158,-1318 247,-1647 101,-379 256,-754 467,-1127 -99,396 -192,1029 -277,1895 -28,563 -59,1255 -98,2084 -39,829 -325,1529 -860,2104 -321,354 -642,634 -966,833z"/>
  <path class="fil6" d="M27635 22473c-663,-89 -1323,-299 -1946,-640 -2687,-1472 -3677,-4817 -2211,-7471 59,-107 122,-211 187,-312 -1384,2843 -284,6309 2551,7862 459,251 935,437 1419,561z"/>
  <path class="fil6" d="M38157 17666c-584,-4750 2404,-6295 3702,-6893 -1660,1242 -3617,2300 -3702,6893z"/>
  <path class="fil0" d="M11596 36344l581 306c-191,372 -412,673 -662,901 -251,227 -531,402 -844,522 -315,119 -668,178 -1063,178 -877,0 -1562,-286 -2056,-858 -494,-571 -741,-1217 -741,-1936 0,-678 210,-1283 629,-1813 529,-674 1240,-1012 2130,-1012 916,0 1649,347 2195,1038 389,487 587,1096 594,1827l-4842 0c13,620 213,1128 598,1523 387,397 865,595 1431,595 274,0 541,-47 800,-141 259,-94 480,-218 661,-375 182,-156 378,-407 589,-755zm-6964 -5813l1242 0 65 0 0 65 0 4699c0,398 -75,766 -225,1103l0 0c-150,338 -374,644 -672,919 -298,275 -623,481 -976,618l0 0c-352,138 -732,207 -1138,207 -402,0 -776,-72 -1121,-216 -344,-143 -660,-358 -946,-644l0 0 0 0c-287,-287 -502,-603 -646,-949 -143,-346 -215,-721 -215,-1124 0,-368 57,-710 172,-1025 115,-316 287,-604 517,-865 230,-260 494,-471 794,-631 298,-159 631,-269 998,-329l1 0c100,-16 198,-27 291,-35l1 0c95,-8 186,-12 273,-12 195,0 397,27 604,79 205,52 417,130 634,234l37 17 0 41 0 1524 -115 39c-67,-86 -146,-163 -235,-230 -91,-68 -194,-127 -308,-176 -113,-49 -231,-86 -352,-111 -121,-24 -248,-36 -379,-36 -214,0 -410,31 -587,91 -176,61 -335,152 -476,274l0 0c-160,138 -280,303 -360,496 -80,195 -120,418 -120,671 0,429 154,796 460,1103 154,154 324,269 509,345 185,77 387,115 604,115 217,0 419,-34 606,-102l0 0c188,-67 362,-170 522,-305 160,-135 279,-287 358,-454 79,-166 118,-351 118,-552l0 -4779 0 -65 65 0zm46956 7616l0 -1326c193,-37 356,-93 492,-172 134,-78 267,-192 399,-339 209,-224 320,-497 336,-820 15,-323 27,-593 38,-812 35,-355 73,-610 114,-762 61,-229 165,-454 312,-679 244,-365 511,-635 801,-807 309,-188 673,-282 1090,-282l0 1356c-325,72 -592,240 -801,503 -111,137 -183,278 -213,419 -31,144 -46,324 -46,541 0,61 0,118 0,168 0,52 0,95 0,131 0,467 -35,833 -107,1098 -71,263 -224,541 -457,830 -270,336 -556,578 -861,728 -305,150 -671,225 -1097,225zm-10850 -5569l1138 0c457,-329 983,-494 1577,-494 730,0 1356,262 1874,784 518,523 777,1151 777,1887l0 3377 -1380 0 0 -3420c0,-345 -134,-638 -400,-878 -267,-241 -581,-361 -940,-361 -346,0 -644,117 -895,353 -233,219 -359,483 -376,791l0 3524 -1375 0 0 -5563zm-29136 2324c-92,-368 -227,-661 -403,-881 -178,-220 -412,-397 -703,-531 -291,-135 -597,-202 -916,-202 -530,0 -984,168 -1364,506 -279,247 -487,615 -630,1108l4016 0zm4730 -1557l-444 457c-368,-356 -730,-534 -1081,-534 -224,0 -416,74 -575,222 -160,146 -241,319 -241,516 0,173 66,339 197,496 131,161 409,349 829,566 511,264 859,522 1044,767 180,249 271,530 271,841 0,440 -155,812 -464,1118 -310,304 -697,457 -1160,457 -310,0 -604,-67 -887,-202 -280,-134 -512,-319 -697,-556l433 -493c352,397 727,595 1122,595 276,0 511,-89 706,-265 193,-177 291,-385 291,-624 0,-197 -64,-372 -192,-526 -129,-152 -418,-342 -869,-570 -484,-249 -814,-495 -987,-737 -175,-242 -262,-518 -262,-828 0,-406 139,-742 417,-1011 279,-267 630,-402 1056,-402 494,0 992,237 1493,713zm3915 0l-444 457c-368,-356 -729,-534 -1081,-534 -223,0 -415,74 -575,222 -159,146 -240,319 -240,516 0,173 65,339 197,496 131,161 408,349 828,566 511,264 860,522 1045,767 179,249 270,530 270,841 0,440 -154,812 -464,1118 -309,304 -696,457 -1160,457 -309,0 -603,-67 -886,-202 -281,-134 -513,-319 -698,-556l434 -493c352,397 726,595 1121,595 276,0 512,-89 707,-265 193,-177 290,-385 290,-624 0,-197 -63,-372 -191,-526 -130,-152 -419,-342 -869,-570 -485,-249 -814,-495 -987,-737 -175,-242 -263,-518 -263,-828 0,-406 140,-742 417,-1011 279,-267 631,-402 1056,-402 494,0 992,237 1493,713zm5735 2999l582 306c-192,372 -412,673 -663,901 -250,227 -531,402 -844,522 -314,119 -667,178 -1062,178 -878,0 -1562,-286 -2057,-858 -494,-571 -741,-1217 -741,-1936 0,-678 210,-1283 629,-1813 529,-674 1241,-1012 2130,-1012 916,0 1649,347 2196,1038 388,487 586,1096 593,1827l-4842 0c14,620 214,1128 599,1523 386,397 864,595 1430,595 274,0 542,-47 801,-141 259,-94 479,-218 660,-375 182,-156 379,-407 589,-755zm7 -1442c-93,-368 -227,-661 -404,-881 -178,-220 -412,-397 -703,-531 -290,-135 -597,-202 -916,-202 -530,0 -983,168 -1363,506 -279,247 -488,615 -631,1108l4017 0zm1763 -2139l706 0 0 784c210,-310 432,-538 666,-690 234,-149 478,-225 730,-225 191,0 395,61 612,182l-360 578c-145,-62 -266,-94 -365,-94 -230,0 -452,94 -666,282 -213,189 -376,483 -489,880 -86,304 -128,921 -128,1849l0 1811 -706 0 0 -5357zm3892 -1997l686 0 0 1997 1090 0 0 595 -1090 0 0 4762 -686 0 0 -4762 -938 0 0 -595 938 0 0 -1997zm5526 2579l-443 457c-369,-356 -730,-534 -1081,-534 -224,0 -416,74 -575,222 -160,146 -241,319 -241,516 0,173 66,339 197,496 131,161 408,349 829,566 511,264 859,522 1044,767 180,249 270,530 270,841 0,440 -154,812 -464,1118 -309,304 -696,457 -1160,457 -309,0 -603,-67 -886,-202 -280,-134 -512,-319 -697,-556l433 -493c352,397 727,595 1122,595 276,0 511,-89 706,-265 193,-177 291,-385 291,-624 0,-197 -64,-372 -192,-526 -129,-152 -419,-342 -869,-570 -484,-249 -814,-495 -987,-737 -175,-242 -262,-518 -262,-828 0,-406 139,-742 417,-1011 279,-267 630,-402 1055,-402 495,0 992,237 1493,713zm11034 54l-376 -217c122,-250 207,-446 249,-587 43,-141 74,-324 94,-548l-432 0 0 -1352 887 0 0 848c0,423 -28,755 -85,997 -58,240 -170,528 -337,859zm8170 -2704l686 0 0 3035c279,-366 588,-642 923,-824 336,-183 699,-274 1091,-274 402,0 758,101 1069,304 311,204 541,478 689,819 148,343 222,880 222,1611l0 2754 -686 0 0 -2552c0,-616 -25,-1028 -74,-1234 -85,-353 -242,-619 -467,-799 -225,-178 -521,-267 -888,-267 -418,0 -793,138 -1125,413 -331,274 -549,616 -655,1023 -66,262 -99,746 -99,1454l0 1962 -686 0 0 -7425zm11488 2068l0 5357 -686 0 0 -922c-290,352 -612,616 -972,791 -358,175 -752,262 -1177,262 -757,0 -1404,-274 -1940,-822 -536,-550 -804,-1216 -804,-2003 0,-768 271,-1427 812,-1973 540,-547 1191,-821 1952,-821 439,0 836,93 1192,278 355,185 668,464 937,839l0 -986 686 0zm-2761 535c-383,0 -738,94 -1061,282 -324,187 -582,451 -773,791 -192,339 -288,699 -288,1079 0,375 96,735 289,1078 194,343 453,610 779,800 326,192 676,287 1049,287 375,0 733,-94 1069,-284 338,-190 597,-445 779,-770 181,-323 272,-687 272,-1093 0,-617 -203,-1133 -612,-1548 -407,-415 -908,-622 -1503,-622zm4316 -2603l686 0 0 4234 2501 -2166 999 0 -2949 2553 3120 2804 -976 0 -2695 -2423 0 2423 -686 0 0 -7425zm9586 5649l582 306c-192,372 -412,673 -663,901 -250,227 -531,402 -844,522 -314,119 -667,178 -1062,178 -878,0 -1562,-286 -2056,-858 -495,-571 -742,-1217 -742,-1936 0,-678 210,-1283 629,-1813 530,-674 1241,-1012 2130,-1012 917,0 1650,347 2196,1038 388,487 587,1096 593,1827l-4842 0c14,620 214,1128 599,1523 387,397 864,595 1431,595 274,0 541,-47 800,-141 259,-94 479,-218 661,-375 181,-156 378,-407 588,-755zm7 -1442c-93,-368 -227,-661 -404,-881 -178,-220 -412,-397 -702,-531 -291,-135 -597,-202 -917,-202 -529,0 -983,168 -1363,506 -279,247 -488,615 -631,1108l4017 0zm4729 -1557l-444 457c-368,-356 -729,-534 -1081,-534 -223,0 -415,74 -575,222 -159,146 -240,319 -240,516 0,173 65,339 197,496 131,161 408,349 828,566 511,264 860,522 1045,767 179,249 270,530 270,841 0,440 -155,812 -464,1118 -309,304 -696,457 -1160,457 -309,0 -603,-67 -886,-202 -281,-134 -513,-319 -698,-556l434 -493c352,397 726,595 1121,595 276,0 512,-89 707,-265 193,-177 290,-385 290,-624 0,-197 -63,-372 -191,-526 -130,-152 -419,-342 -869,-570 -485,-249 -814,-495 -987,-737 -175,-242 -263,-518 -263,-828 0,-406 140,-742 417,-1011 279,-267 631,-402 1056,-402 494,0 992,237 1493,713z"/>
  <path class="fil5" d="M52344 36629c105,-73 210,-169 314,-284 209,-224 320,-497 336,-820 15,-323 27,-593 38,-813 35,-355 73,-609 114,-762 47,-175 119,-349 216,-521 -46,183 -89,476 -128,877 -13,260 -27,581 -45,964 -19,384 -151,708 -399,974 -148,163 -297,293 -446,385z"/>
  <path class="fil6" d="M40910 35570c-270,-2196 1111,-2910 1712,-3186 -768,574 -1672,1063 -1712,3186z"/>
  <path class="fil6" d="M2451 37792c-307,-41 -611,-138 -899,-296 -1243,-680 -1700,-2226 -1022,-3453 27,-49 56,-97 86,-144 -640,1314 -131,2916 1179,3634 212,116 432,202 656,259z"/>
 </g>
</svg>
